Coordinates
version=1
nRows=13
nColumns=34
inDegrees=yes

Units are S.I. units (second, meters, Newtons, ...)
If the header above contains a line with 'inDegrees', this indicates whether rotational values are in degrees (yes) or radians (no).

endheader
time	pelvis_tilt	pelvis_list	pelvis_rotation	pelvis_tx	pelvis_ty	pelvis_tz	hip_flexion_r	hip_adduction_r	hip_rotation_r	knee_angle_r	ankle_angle_r	subtalar_angle_r	mtp_angle_r	hip_flexion_l	hip_adduction_l	hip_rotation_l	knee_angle_l	ankle_angle_l	subtalar_angle_l	mtp_angle_l	lumbar_extension	lumbar_bending	lumbar_rotation	arm_flex_r	arm_add_r	arm_rot_r	elbow_flex_r	pro_sup_r	arm_flex_l	arm_add_l	arm_rot_l	elbow_flex_l	pro_sup_l
      0.00000000	      2.74323030	     -8.81893897	    -52.35817902	      1.92557886	      0.95501756	      3.92884144	     30.49602211	     12.86524668	     -1.23741124	     31.84036740	      5.08907909	     10.79564119	      0.00000000	     18.18627421	     19.87351511	      7.44463420	     13.74817563	     -8.33283560	     -8.88392701	      0.00000000	    -18.83688366	     -6.06343863	     31.07699227	     25.11456209	     31.38219294	     14.88553525	     37.02818630	     99.26258108	     12.61157975	     38.46975817	     46.78251283	     23.63552305	     80.54359870
      0.01666670	      2.77889523	     -8.78076126	    -52.43984304	      1.92596766	      0.95522183	      3.92937091	     30.42194162	     12.86538631	     -1.33185189	     31.79708389	      5.09860481	     10.74190508	      0.00000000	     18.17962736	     19.90899923	      7.45070261	     13.78155464	     -8.33341664	     -8.89301176	      0.00000000	    -18.76965087	     -6.06124396	     31.11308612	     25.05610482	     31.47408145	     14.91943134	     37.01641225	     99.26800665	     12.72073291	     38.50566888	     46.78655009	     23.68261260	     80.54956232
      0.03333330	      2.74798672	     -8.59673582	    -52.95592592	      1.92486020	      0.95549220	      3.92983645	     30.19688489	     12.84973233	     -2.31006826	     31.08473030	      4.36491499	     10.18963297	      0.00000000	     18.32497735	     19.82926526	      7.20109964	     13.43739774	     -8.66339222	     -9.30199862	      0.00000000	    -18.72268191	     -6.44798360	     31.14266810	     25.09770874	     31.73970662	     15.64001660	     36.92973542	     99.39273953	     13.09768778	     38.25896839	     46.90060014	     23.60299793	     80.62112978
      0.05000000	      2.52075250	     -8.33855267	    -53.02047196	      1.92483429	      0.95547281	      3.92977087	     30.12623263	     12.86147939	     -2.36648216	     30.16425653	      4.38596162	     10.15336134	      0.00000000	     18.54439011	     19.77702344	      7.27071109	     13.13763243	     -8.79895247	     -9.30436019	      0.00000000	    -18.64359316	     -6.62795526	     31.24397004	     25.28692747	     31.65495639	     15.86508364	     36.88613959	     99.42973690	     13.19732875	     38.27095567	     46.96901260	     23.60710607	     80.64442280
      0.06666670	      2.04368801	     -8.53234485	    -53.23193035	      1.92533105	      0.95585170	      3.92929621	     30.00526572	     13.67569464	     -1.45446736	     29.39596398	      2.91410424	      8.63359976	      0.00000000	     18.69850749	     19.32368228	      7.63754185	     13.15862705	     -9.30459263	    -10.00953665	      0.00000000	    -18.52428966	     -6.05710855	     31.36481904	     25.46659460	     31.21305934	     17.36837996	     36.52097236	     99.67068321	     13.17360031	     38.35197239	     47.74172148	     23.57262355	     80.85764358
      0.08333330	      1.72274709	     -8.68322109	    -53.43829880	      1.92455284	      0.95579124	      3.92830614	     30.00203811	     14.27472079	     -0.71959346	     29.05709149	      2.16979098	      7.49913057	      0.00000000	     19.10866049	     18.97868722	      7.74303801	     13.60060776	     -9.51512691	    -10.43791539	      0.00000000	    -18.72170550	     -5.80410060	     31.00403590	     25.73535917	     31.21193003	     17.99770570	     36.00925037	     99.76747222	     13.83706314	     38.54033987	     48.11246429	     23.27372838	     80.98436280
      0.10000000	      1.64069149	     -8.96137343	    -53.49381070	      1.92404153	      0.95575631	      3.92661051	     30.42586054	     14.53728121	     -0.50430448	     29.94091231	      1.65914300	      7.47117766	      0.00000000	     19.16258705	     18.79773021	      7.84173952	     13.86200855	     -9.54252837	    -10.45135032	      0.00000000	    -19.31755941	     -5.60638292	     31.02870522	     26.01980529	     30.96318472	     17.95272259	     35.92370472	     99.76405735	     14.12202625	     38.98981342	     48.18761996	     23.44022320	     81.00859825
      0.11666670	      0.77839776	     -9.42303608	    -54.11699925	      1.92311333	      0.95529948	      3.92492500	     30.73250561	     15.74828696	     -0.85354905	     29.66928338	     -0.53099224	      5.20575448	      0.00000000	     19.96447871	     17.84889987	      7.98961820	     14.86296597	     -9.38112103	    -11.54785925	      0.00000000	    -19.51797275	     -4.59540366	     31.38763872	     26.37203013	     30.56565895	     19.21829237	     34.90292046	     99.95637057	     14.86560205	     39.39338385	     49.27516573	     23.17968790	     81.25959577
      0.13333330	      0.45031803	     -9.58230373	    -54.75293310	      1.92318191	      0.95513815	      3.92409956	     30.46035616	     16.22882138	     -1.16920641	     29.00697364	     -0.70200426	      5.16925684	      0.00000000	     20.49868488	     17.41333730	      7.42223927	     15.47594751	     -9.43233886	    -11.99639297	      0.00000000	    -19.70321573	     -4.08962580	     31.81362942	     26.20333915	     30.40435394	     19.79555859	     34.52204583	    100.03339718	     15.27261257	     39.61807277	     49.37715356	     23.07451167	     81.29469533
      0.15000000	      0.08117474	    -10.18445419	    -55.26814253	      1.92457965	      0.95573479	      3.92356588	     29.90347331	     17.04370725	     -1.06643299	     28.57305664	     -1.25812094	      4.00995649	      0.00000000	     20.73671425	     16.79952751	      7.09255605	     16.54151614	     -8.87085661	    -12.16979282	      0.00000000	    -19.81670174	     -3.10891434	     32.32947202	     25.78013165	     30.14395414	     20.49731275	     34.38439979	    100.13758115	     15.22326211	     39.80236209	     49.31015261	     23.10874613	     81.32855717
      0.16666670	     -0.13438208	    -10.52307803	    -55.44825295	      1.92481787	      0.95669212	      3.92231892	     29.92170179	     17.62229750	     -0.94988933	     28.61526031	     -3.04405939	      1.54017919	      0.00000000	     21.22684262	     16.42834441	      6.27090091	     17.52902390	     -9.28208281	    -12.28489577	      0.00000000	    -20.11561169	     -2.55367827	     31.97938145	     25.81963219	     30.25119439	     21.10395799	     34.12096525	    100.24510977	     15.74885388	     39.79049562	     48.99016775	     23.06916593	     81.38701753
      0.18333330	     -0.07748636	    -10.65417131	    -55.49649350	      1.92550597	      0.95769262	      3.92196291	     29.47697831	     17.61700907	     -1.06229106	     28.19404870	     -3.23168762	      1.28092061	      0.00000000	     21.49970362	     16.46841439	      5.47306668	     18.16123348	     -9.63117890	    -12.82703573	      0.00000000	    -20.22456889	     -2.57477267	     31.42276593	     25.61711774	     30.70673596	     21.34178773	     34.12577157	    100.27798342	     16.06366599	     39.65516987	     48.98818800	     23.00733272	     81.42042929
      0.20000000	     -0.19631579	    -10.79812311	    -55.78526098	      1.92686860	      0.95875170	      3.92169812	     28.99363260	     17.97567143	     -0.33296082	     27.52852383	     -4.13385309	      0.48070612	      0.00000000	     21.81117345	     16.32399470	      4.59599685	     18.71401824	    -10.32078547	    -13.68580935	      0.00000000	    -20.27947806	     -2.24456268	     31.19479609	     25.54454762	     30.87408361	     22.77982346	     33.53700353	    100.45170420	     16.31429197	     39.75640011	     49.09720822	     22.67519052	     81.60556674
